<?xml version="1.0" encoding="UTF-8" standalone="yes"?><svg xmlns="http://www.w3.org/2000/svg" xmlns:xlink="http://www.w3.org/1999/xlink" height="357px" style="width:314px;height:357px;" version="1.1" viewBox="0 0 314 357" width="314px"><defs><filter height="300%" id="f1" width="300%" x="-1" y="-1"><feGaussianBlur result="blurOut" stdDeviation="2.0"/><feColorMatrix in="blurOut" result="blurOut2" type="matrix" values="0 0 0 0 0 0 0 0 0 0 0 0 0 0 0 0 0 0 .4 0"/><feOffset dx="4.0" dy="4.0" in="blurOut2" result="blurOut3"/><feBlend in="SourceGraphic" in2="blurOut3" mode="normal"/></filter></defs><g><rect fill="#FFFFCC" filter="url(#f1)" height="78.2031" rx="12.5" ry="12.5" style="stroke: #A80036; stroke-width: 1.5;" width="97" x="112.75" y="132"/><line style="stroke: #A80036; stroke-width: 1.5;" x1="112.75" x2="209.75" y1="158.2969" y2="158.2969"/><text fill="#000000" font-family="sans-serif" font-size="14" lengthAdjust="spacingAndGlyphs" textLength="32" x="145.25" y="149.9951">prog</text><text fill="#000000" font-family="sans-serif" font-size="12" lengthAdjust="spacingAndGlyphs" textLength="53" x="117.75" y="174.4355">Program</text><text fill="#000000" font-family="sans-serif" font-size="12" lengthAdjust="spacingAndGlyphs" textLength="77" x="117.75" y="188.4043">Status: True</text><text fill="#000000" font-family="sans-serif" font-size="12" lengthAdjust="spacingAndGlyphs" textLength="59" x="117.75" y="202.373">Priority: 1</text><rect fill="#CCFFCC" filter="url(#f1)" height="64.2344" rx="12.5" ry="12.5" style="stroke: #A80036; stroke-width: 1.5;" width="144" x="6" y="8"/><line style="stroke: #A80036; stroke-width: 1.5;" x1="6" x2="150" y1="34.2969" y2="34.2969"/><text fill="#000000" font-family="sans-serif" font-size="14" lengthAdjust="spacingAndGlyphs" textLength="66" x="45" y="25.9951">periodical</text><text fill="#000000" font-family="sans-serif" font-size="12" lengthAdjust="spacingAndGlyphs" textLength="124" x="11" y="50.4355">IntervalTimerSensor</text><text fill="#000000" font-family="sans-serif" font-size="12" lengthAdjust="spacingAndGlyphs" textLength="69" x="11" y="64.4043">Status: 1.0</text><rect fill="#CCFFCC" filter="url(#f1)" height="64.2344" rx="12.5" ry="12.5" style="stroke: #A80036; stroke-width: 1.5;" width="120" x="185.5" y="8"/><line style="stroke: #A80036; stroke-width: 1.5;" x1="185.5" x2="305.5" y1="34.2969" y2="34.2969"/><text fill="#000000" font-family="sans-serif" font-size="14" lengthAdjust="spacingAndGlyphs" textLength="91" x="200" y="25.9951">active_switch</text><text fill="#000000" font-family="sans-serif" font-size="12" lengthAdjust="spacingAndGlyphs" textLength="100" x="190.5" y="50.4355">UserBoolSensor</text><text fill="#000000" font-family="sans-serif" font-size="12" lengthAdjust="spacingAndGlyphs" textLength="77" x="190.5" y="64.4043">Status: True</text><rect fill="#FFCCFF" filter="url(#f1)" height="78.2031" rx="12.5" ry="12.5" style="stroke: #A80036; stroke-width: 1.5;" width="165" x="78.75" y="270"/><line style="stroke: #A80036; stroke-width: 1.5;" x1="78.75" x2="243.75" y1="296.2969" y2="296.2969"/><text fill="#000000" font-family="sans-serif" font-size="14" lengthAdjust="spacingAndGlyphs" textLength="105" x="108.75" y="287.9951">target_actuator</text><text fill="#000000" font-family="sans-serif" font-size="12" lengthAdjust="spacingAndGlyphs" textLength="70" x="83.75" y="312.4355">IntActuator</text><text fill="#000000" font-family="sans-serif" font-size="12" lengthAdjust="spacingAndGlyphs" textLength="65" x="83.75" y="326.4043">prog :: 7.0</text><text fill="#000000" font-family="sans-serif" font-size="12" lengthAdjust="spacingAndGlyphs" textLength="145" x="83.75" y="340.373">dp_target_actuator :: 0</text><path d="M98.092,72.227 C108.707,88.725 121.895,109.222 133.45,127.181 " fill="none" style="stroke: #009933; stroke-width: 1.0;"/><polygon fill="#009933" points="136.35,131.689,134.843,121.9561,133.6441,127.4845,128.1158,126.2855,136.35,131.689" style="stroke: #009933; stroke-width: 1.0;"/><path d="M224.666,72.227 C213.923,88.725 200.576,109.222 188.882,127.181 " fill="none" style="stroke: #009933; stroke-width: 1.0;"/><polygon fill="#009933" points="185.947,131.689,194.2102,126.33,188.6755,127.4991,187.5064,121.9644,185.947,131.689" style="stroke: #009933; stroke-width: 1.0;"/><path d="M161,210.246 C161,227.049 161,246.871 161,264.2585 " fill="none" style="stroke: #FF0000; stroke-width: 1.0;"/><polygon fill="#FF0000" points="161,269.5703,165,260.5703,161,264.5703,157,260.5703,161,269.5703" style="stroke: #FF0000; stroke-width: 1.0;"/></g></svg>