<?xml version="1.0" encoding="UTF-8" standalone="yes"?><svg xmlns="http://www.w3.org/2000/svg" xmlns:xlink="http://www.w3.org/1999/xlink" height="343px" style="width:305px;height:343px;" version="1.1" viewBox="0 0 305 343" width="305px"><defs><filter height="300%" id="f1" width="300%" x="-1" y="-1"><feGaussianBlur result="blurOut" stdDeviation="2.0"/><feColorMatrix in="blurOut" result="blurOut2" type="matrix" values="0 0 0 0 0 0 0 0 0 0 0 0 0 0 0 0 0 0 .4 0"/><feOffset dx="4.0" dy="4.0" in="blurOut2" result="blurOut3"/><feBlend in="SourceGraphic" in2="blurOut3" mode="normal"/></filter></defs><g><rect fill="#FFFFCC" filter="url(#f1)" height="78.2031" rx="12.5" ry="12.5" style="stroke: #A80036; stroke-width: 1.5;" width="102" x="103.75" y="132"/><line style="stroke: #A80036; stroke-width: 1.5;" x1="103.75" x2="205.75" y1="158.2969" y2="158.2969"/><text fill="#000000" font-family="sans-serif" font-size="14" lengthAdjust="spacingAndGlyphs" textLength="58" x="125.75" y="149.9951">program</text><text fill="#000000" font-family="sans-serif" font-size="12" lengthAdjust="spacingAndGlyphs" textLength="53" x="108.75" y="174.4355">Program</text><text fill="#000000" font-family="sans-serif" font-size="12" lengthAdjust="spacingAndGlyphs" textLength="82" x="108.75" y="188.4043">Status: False</text><text fill="#000000" font-family="sans-serif" font-size="12" lengthAdjust="spacingAndGlyphs" textLength="59" x="108.75" y="202.373">Priority: 1</text><rect fill="#CCFFCC" filter="url(#f1)" height="64.2344" rx="12.5" ry="12.5" style="stroke: #A80036; stroke-width: 1.5;" width="135" x="6" y="8"/><line style="stroke: #A80036; stroke-width: 1.5;" x1="6" x2="141" y1="34.2969" y2="34.2969"/><text fill="#000000" font-family="sans-serif" font-size="14" lengthAdjust="spacingAndGlyphs" textLength="115" x="16" y="25.9951">hardware_switch</text><text fill="#000000" font-family="sans-serif" font-size="12" lengthAdjust="spacingAndGlyphs" textLength="71" x="11" y="50.4355">RpioSensor</text><text fill="#000000" font-family="sans-serif" font-size="12" lengthAdjust="spacingAndGlyphs" textLength="82" x="11" y="64.4043">Status: False</text><rect fill="#CCFFCC" filter="url(#f1)" height="64.2344" rx="12.5" ry="12.5" style="stroke: #A80036; stroke-width: 1.5;" width="120" x="176.75" y="8"/><line style="stroke: #A80036; stroke-width: 1.5;" x1="176.75" x2="296.75" y1="34.2969" y2="34.2969"/><text fill="#000000" font-family="sans-serif" font-size="14" lengthAdjust="spacingAndGlyphs" textLength="80" x="196.75" y="25.9951">web_switch</text><text fill="#000000" font-family="sans-serif" font-size="12" lengthAdjust="spacingAndGlyphs" textLength="100" x="181.75" y="50.4355">UserBoolSensor</text><text fill="#000000" font-family="sans-serif" font-size="12" lengthAdjust="spacingAndGlyphs" textLength="82" x="181.75" y="64.4043">Status: False</text><rect fill="#FFCCFF" filter="url(#f1)" height="64.2344" rx="12.5" ry="12.5" style="stroke: #A80036; stroke-width: 1.5;" width="121" x="94" y="270"/><line style="stroke: #A80036; stroke-width: 1.5;" x1="94" x2="215" y1="296.2969" y2="296.2969"/><text fill="#000000" font-family="sans-serif" font-size="14" lengthAdjust="spacingAndGlyphs" textLength="33" x="138" y="287.9951">lamp</text><text fill="#000000" font-family="sans-serif" font-size="12" lengthAdjust="spacingAndGlyphs" textLength="81" x="99" y="312.4355">RpioActuator</text><text fill="#000000" font-family="sans-serif" font-size="12" lengthAdjust="spacingAndGlyphs" textLength="101" x="99" y="326.4043">dp_lamp :: False</text><path d="M92.8578,72.227 C103.2169,88.725 116.087,109.222 127.364,127.181 " fill="none" style="stroke: #009933; stroke-width: 1.0;"/><polygon fill="#009933" points="130.194,131.689,128.7959,121.9399,127.5353,127.4545,122.0207,126.1938,130.194,131.689" style="stroke: #009933; stroke-width: 1.0;"/><path d="M216.4,72.227 C205.913,88.725 192.884,109.222 181.468,127.181 " fill="none" style="stroke: #009933; stroke-width: 1.0;"/><polygon fill="#009933" points="178.603,131.689,186.8071,126.24,181.2855,127.4695,180.056,121.9479,178.603,131.689" style="stroke: #009933; stroke-width: 1.0;"/><path d="M154.25,210.007 C154.25,227.249 154.25,247.5482 154.25,264.5941 " fill="none" style="stroke: #4C4C4C; stroke-width: 1.0;"/><polygon fill="#4C4C4C" points="154.25,269.7727,158.25,260.7727,154.25,264.7727,150.25,260.7727,154.25,269.7727" style="stroke: #4C4C4C; stroke-width: 1.0;"/></g></svg>