<?xml version="1.0" encoding="UTF-8" standalone="yes"?><svg xmlns="http://www.w3.org/2000/svg" xmlns:xlink="http://www.w3.org/1999/xlink" height="261px" style="width:732px;height:261px;" version="1.1" viewBox="0 0 732 261" width="732px"><defs><filter height="300%" id="f1" width="300%" x="-1" y="-1"><feGaussianBlur result="blurOut" stdDeviation="2.0"/><feColorMatrix in="blurOut" result="blurOut2" type="matrix" values="0 0 0 0 0 0 0 0 0 0 0 0 0 0 0 0 0 0 .4 0"/><feOffset dx="4.0" dy="4.0" in="blurOut2" result="blurOut3"/><feBlend in="SourceGraphic" in2="blurOut3" mode="normal"/></filter></defs><g><rect fill="#CCFFCC" filter="url(#f1)" height="78.2031" rx="12.5" ry="12.5" style="stroke: #A80036; stroke-width: 1.5;" width="120" x="6.5" y="8"/><line style="stroke: #A80036; stroke-width: 1.5;" x1="6.5" x2="126.5" y1="34.2969" y2="34.2969"/><text fill="#000000" font-family="sans-serif" font-size="14" lengthAdjust="spacingAndGlyphs" textLength="93" x="20" y="25.9951">high_prio_prg</text><text fill="#000000" font-family="sans-serif" font-size="12" lengthAdjust="spacingAndGlyphs" textLength="100" x="11.5" y="50.4355">UserBoolSensor</text><text fill="#000000" font-family="sans-serif" font-size="12" lengthAdjust="spacingAndGlyphs" textLength="77" x="11.5" y="64.4043">Status: True</text><text fill="#000000" font-family="sans-serif" font-size="12" lengthAdjust="spacingAndGlyphs" textLength="71" x="11.5" y="78.373">Priority: 5.0</text><rect fill="#FFCCFF" filter="url(#f1)" height="106.1406" rx="12.5" ry="12.5" style="stroke: #A80036; stroke-width: 1.5;" width="140" x="294" y="146"/><line style="stroke: #A80036; stroke-width: 1.5;" x1="294" x2="434" y1="172.2969" y2="172.2969"/><text fill="#000000" font-family="sans-serif" font-size="14" lengthAdjust="spacingAndGlyphs" textLength="57" x="335.5" y="163.9951">actuator</text><text fill="#000000" font-family="sans-serif" font-size="12" lengthAdjust="spacingAndGlyphs" textLength="85" x="299" y="188.4355">FloatActuator</text><text fill="#000000" font-family="sans-serif" font-size="12" lengthAdjust="spacingAndGlyphs" textLength="120" x="299" y="202.4043">high_prio_prg :: 3.0</text><text fill="#000000" font-family="sans-serif" font-size="12" lengthAdjust="spacingAndGlyphs" textLength="120" x="299" y="216.373">med_prio_prg :: 2.0</text><text fill="#000000" font-family="sans-serif" font-size="12" lengthAdjust="spacingAndGlyphs" textLength="112" x="299" y="230.3418">dp_actuator :: 0.0</text><text fill="#000000" font-family="sans-serif" font-size="12" lengthAdjust="spacingAndGlyphs" textLength="113" x="299" y="244.3105">low_prio_prg :: 1.0</text><rect fill="#CCFFCC" filter="url(#f1)" height="78.2031" rx="12.5" ry="12.5" style="stroke: #A80036; stroke-width: 1.5;" width="172" x="179" y="8"/><line style="stroke: #A80036; stroke-width: 1.5;" x1="179" x2="351" y1="34.2969" y2="34.2969"/><text fill="#000000" font-family="sans-serif" font-size="14" lengthAdjust="spacingAndGlyphs" textLength="152" x="189" y="25.9951">inactive_high_prio_prg</text><text fill="#000000" font-family="sans-serif" font-size="12" lengthAdjust="spacingAndGlyphs" textLength="100" x="184" y="50.4355">UserBoolSensor</text><text fill="#000000" font-family="sans-serif" font-size="12" lengthAdjust="spacingAndGlyphs" textLength="82" x="184" y="64.4043">Status: False</text><text fill="#000000" font-family="sans-serif" font-size="12" lengthAdjust="spacingAndGlyphs" textLength="71" x="184" y="78.373">Priority: 6.0</text><rect fill="#CCFFCC" filter="url(#f1)" height="78.2031" rx="12.5" ry="12.5" style="stroke: #A80036; stroke-width: 1.5;" width="120" x="404.5" y="8"/><line style="stroke: #A80036; stroke-width: 1.5;" x1="404.5" x2="524.5" y1="34.2969" y2="34.2969"/><text fill="#000000" font-family="sans-serif" font-size="14" lengthAdjust="spacingAndGlyphs" textLength="86" x="421.5" y="25.9951">low_prio_prg</text><text fill="#000000" font-family="sans-serif" font-size="12" lengthAdjust="spacingAndGlyphs" textLength="100" x="409.5" y="50.4355">UserBoolSensor</text><text fill="#000000" font-family="sans-serif" font-size="12" lengthAdjust="spacingAndGlyphs" textLength="77" x="409.5" y="64.4043">Status: True</text><text fill="#000000" font-family="sans-serif" font-size="12" lengthAdjust="spacingAndGlyphs" textLength="75" x="409.5" y="78.373">Priority: -5.0</text><rect fill="#CCFFCC" filter="url(#f1)" height="78.2031" rx="12.5" ry="12.5" style="stroke: #A80036; stroke-width: 1.5;" width="120" x="577.5" y="8"/><line style="stroke: #A80036; stroke-width: 1.5;" x1="577.5" x2="697.5" y1="34.2969" y2="34.2969"/><text fill="#000000" font-family="sans-serif" font-size="14" lengthAdjust="spacingAndGlyphs" textLength="94" x="590.5" y="25.9951">med_prio_prg</text><text fill="#000000" font-family="sans-serif" font-size="12" lengthAdjust="spacingAndGlyphs" textLength="100" x="582.5" y="50.4355">UserBoolSensor</text><text fill="#000000" font-family="sans-serif" font-size="12" lengthAdjust="spacingAndGlyphs" textLength="77" x="582.5" y="64.4043">Status: True</text><text fill="#000000" font-family="sans-serif" font-size="12" lengthAdjust="spacingAndGlyphs" textLength="71" x="582.5" y="78.373">Priority: 1.0</text><path d="M125.665,18.507 C144.819,18.799 160,28.297 160,47 C160,63.95 147.532,73.339 130.938,75.168 " fill="none" style="stroke: #009933; stroke-width: 1.0;"/><polygon fill="#009933" points="125.665,75.493,134.8937,78.9325,130.6556,75.1858,134.4023,70.9476,125.665,75.493" style="stroke: #009933; stroke-width: 1.0;"/><path d="M125.589,77.994 C172.66,101.688 238.625,134.892 289.239,160.3684 " fill="none" style="stroke: #FF0000; stroke-width: 1.0;"/><polygon fill="#FF0000" points="293.778,162.6535,287.5381,155.0335,289.3121,160.405,283.9406,162.179,293.778,162.6535" style="stroke: #FF0000; stroke-width: 1.0;"/><path d="M351.194,19.095 C371.241,21.445 386,30.746 386,47 C386,61.857 373.669,70.905 356.239,74.145 " fill="none" style="stroke: #009933; stroke-width: 1.0;"/><polygon fill="#009933" points="351.194,74.905,360.6892,77.5207,356.1383,74.1607,359.4983,69.6098,351.194,74.905" style="stroke: #009933; stroke-width: 1.0;"/><path d="M290.238,86.239 C301.369,103.105 314.675,123.265 326.902,141.791 " fill="none" style="stroke: #4C4C4C; stroke-width: 1.0;"/><polygon fill="#4C4C4C" points="329.656,145.964,328.0381,136.2489,326.9023,141.7906,321.3606,140.6549,329.656,145.964" style="stroke: #4C4C4C; stroke-width: 1.0;"/><path d="M523.665,18.507 C542.819,18.799 558,28.297 558,47 C558,63.95 545.532,73.339 528.938,75.168 " fill="none" style="stroke: #009933; stroke-width: 1.0;"/><polygon fill="#009933" points="523.665,75.493,532.8937,78.9325,528.6556,75.1858,532.4023,70.9476,523.665,75.493" style="stroke: #009933; stroke-width: 1.0;"/><path d="M438.507,86.239 C427.263,103.105 413.823,123.265 401.473,141.791 " fill="none" style="stroke: #0000FF; stroke-width: 1.0;"/><polygon fill="#0000FF" points="398.691,145.964,407.0111,140.6937,401.4642,141.8035,400.3543,136.2566,398.691,145.964" style="stroke: #0000FF; stroke-width: 1.0;"/><path d="M696.665,18.507 C715.819,18.799 731,28.297 731,47 C731,63.95 718.532,73.339 701.938,75.168 " fill="none" style="stroke: #009933; stroke-width: 1.0;"/><polygon fill="#009933" points="696.665,75.493,705.8937,78.9325,701.6556,75.1858,705.4023,70.9476,696.665,75.493" style="stroke: #009933; stroke-width: 1.0;"/><path d="M577.426,80.733 C536.624,103.151 482.207,133.051 438.533,157.0478 " fill="none" style="stroke: #0000FF; stroke-width: 1.0;"/><polygon fill="#0000FF" points="434.072,159.4988,443.8861,158.6716,438.4544,157.0915,440.0344,151.6598,434.072,159.4988" style="stroke: #0000FF; stroke-width: 1.0;"/></g></svg>